<svg width="81" height="34" viewBox="0 0 81 34" fill="none" xmlns="http://www.w3.org/2000/svg">
<rect x="49" y="3" width="7.73142" height="28.2696" rx="2" fill="#D65862"/>
<rect width="8.61988" height="15.7475" rx="2" transform="matrix(0.628957 -0.77744 0.641493 0.767129 53.125 21.1901)" fill="#D65862"/>
<rect width="8.7893" height="10.9914" rx="2" transform="matrix(-0.548303 -0.83628 0.718097 -0.695943 58.1143 21.1355)" fill="#D65862"/>
<path d="M4 30V10.362C4 9.08411 4.42338 7.84219 5.20396 6.83038L5.40971 6.56368C6.37468 5.31287 7.86514 4.58026 9.44492 4.58026V4.58026C11.0609 4.58026 12.5811 5.34663 13.5421 6.64574L13.7186 6.88424C14.4425 7.86283 14.8332 9.04795 14.8332 10.2652V22.8932C14.8332 23.8781 15.0896 24.846 15.5773 25.7017L15.6255 25.7864C16.6047 27.5045 18.4303 28.5654 20.4078 28.5654V28.5654C22.2355 28.5654 23.944 27.6582 24.9677 26.1441L25.1183 25.9214C25.7905 24.9273 26.1497 23.7547 26.1497 22.5547V9.99539" stroke="#D65862" stroke-width="7"/>
<path d="M26.1496 2L32.6421 11.0625H19.6572L26.1496 2Z" fill="#D65862"/>
<rect x="72" y="11" width="9" height="20" rx="4.5" fill="#D65862"/>
<rect x="36" y="11" width="9" height="20" rx="4.5" fill="#D65862"/>
<circle cx="40.5" cy="4.5" r="4.5" fill="#E19F9B"/>
<circle cx="76.5" cy="4.5" r="4.5" fill="#E19F9B"/>
<circle cx="65.5" cy="4.5" r="4.5" fill="#E19F9B"/>
</svg>
