<svg width="31" height="27" viewBox="0 0 31 27" fill="none" xmlns="http://www.w3.org/2000/svg">
<path d="M10.3342 13.5C10.3342 11.0148 12.6466 8.99964 15.5 8.99964C18.3534 8.99964 20.6671 11.0148 20.6671 13.5C20.6671 15.9852 18.3534 18.0004 15.5 18.0004C12.6466 18.0004 10.3342 15.9852 10.3342 13.5ZM7.54094 13.5C7.54094 17.3286 11.1042 20.4321 15.5 20.4321C19.8958 20.4321 23.4591 17.3286 23.4591 13.5C23.4591 9.6714 19.8958 6.56791 15.5 6.56791C11.1042 6.56791 7.54094 9.6714 7.54094 13.5ZM21.9141 6.29305C21.914 6.61346 22.0229 6.92671 22.2272 7.19319C22.4315 7.45966 22.7219 7.6674 23.0617 7.79014C23.4015 7.91287 23.7755 7.94508 24.1363 7.8827C24.4971 7.82032 24.8286 7.66614 25.0888 7.43967C25.3491 7.2132 25.5263 6.92461 25.5983 6.61038C25.6702 6.29616 25.6335 5.97042 25.4928 5.67435C25.3522 5.37829 25.1139 5.12519 24.8081 4.94708C24.5023 4.76896 24.1428 4.67383 23.7749 4.6737H23.7741C23.281 4.6739 22.8082 4.84455 22.4594 5.14818C22.1107 5.4518 21.9146 5.86358 21.9141 6.29305ZM9.238 24.4887C7.72681 24.4287 6.90544 24.2095 6.35959 24.0243C5.63592 23.7789 5.11959 23.4867 4.57672 23.0145C4.03384 22.5423 3.6978 22.093 3.41732 21.4627C3.20453 20.9875 2.95281 20.2719 2.88412 18.9557C2.80897 17.5327 2.79397 17.1053 2.79397 13.5001C2.79397 9.89496 2.81021 9.46868 2.88412 8.04449C2.95294 6.72829 3.20652 6.01409 3.41732 5.53748C3.69904 4.9072 4.03459 4.45748 4.57672 3.98466C5.11884 3.51184 5.63468 3.21916 6.35959 2.97486C6.90519 2.78953 7.72681 2.57029 9.238 2.51046C10.8718 2.44501 11.3626 2.43194 15.5 2.43194C19.6374 2.43194 20.1287 2.44609 21.7639 2.51046C23.275 2.5704 24.0951 2.79126 24.6423 2.97486C25.3659 3.21916 25.8823 3.51248 26.4251 3.98466C26.968 4.45684 27.3028 4.9072 27.5845 5.53748C27.7973 6.01268 28.049 6.72829 28.1177 8.04449C28.1929 9.46868 28.2079 9.89496 28.2079 13.5001C28.2079 17.1053 28.1929 17.5315 28.1177 18.9557C28.0489 20.2719 27.796 20.9873 27.5845 21.4627C27.3028 22.093 26.9673 22.5427 26.4251 23.0145C25.883 23.4862 25.3659 23.7789 24.6423 24.0243C24.0967 24.2096 23.275 24.4288 21.7639 24.4887C20.13 24.5541 19.6392 24.5672 15.5 24.5672C11.3608 24.5672 10.8713 24.5541 9.238 24.4887ZM9.10966 0.081756C7.45959 0.147204 6.33206 0.375084 5.34738 0.708804C4.3276 1.05343 3.46431 1.51578 2.60164 2.26595C1.73898 3.01612 1.2095 3.7692 0.813812 4.65739C0.430652 5.51556 0.169012 6.49706 0.093868 7.93422C0.017484 9.37364 0 9.83383 0 13.5C0 17.1662 0.017484 17.6264 0.093868 19.0658C0.169012 20.503 0.430652 21.4844 0.813812 22.3426C1.2095 23.2303 1.7391 23.9842 2.60164 24.7341C3.46419 25.4839 4.3276 25.9456 5.34738 26.2912C6.33392 26.6249 7.45959 26.8528 9.10966 26.9182C10.7632 26.9837 11.2907 27 15.5 27C19.7093 27 20.2377 26.9848 21.8903 26.9182C23.5405 26.8528 24.6673 26.6249 25.6526 26.2912C26.6718 25.9456 27.5357 25.4842 28.3984 24.7341C29.261 23.9839 29.7894 23.2303 30.1862 22.3426C30.5693 21.4844 30.8322 20.5029 30.9061 19.0658C30.9813 17.6253 30.9988 17.1662 30.9988 13.5C30.9988 9.83383 30.9813 9.37364 30.9061 7.93422C30.831 6.49696 30.5693 5.51502 30.1862 4.65739C29.7894 3.76974 29.2597 3.0173 28.3984 2.26595C27.5371 1.51459 26.6718 1.05343 25.6539 0.708804C24.6673 0.375084 23.5404 0.146124 21.8916 0.081756C20.2389 0.016308 19.7105 0 15.5012 0C11.2919 0 10.7632 0.015228 9.10966 0.081756Z" fill="url(#paint0_radial_373_56)"/>
<path d="M10.3346 13.5C10.3346 11.0148 12.6471 8.99964 15.5006 8.99964C18.3541 8.99964 20.6679 11.0148 20.6679 13.5C20.6679 15.9852 18.3541 18.0004 15.5006 18.0004C12.6471 18.0004 10.3346 15.9852 10.3346 13.5ZM7.54124 13.5C7.54124 17.3286 11.1046 20.4321 15.5006 20.4321C19.8966 20.4321 23.46 17.3286 23.46 13.5C23.46 9.6714 19.8966 6.56791 15.5006 6.56791C11.1046 6.56791 7.54124 9.6714 7.54124 13.5ZM21.915 6.29305C21.9149 6.61346 22.0238 6.92671 22.2281 7.19319C22.4324 7.45966 22.7228 7.6674 23.0626 7.79014C23.4024 7.91287 23.7764 7.94508 24.1373 7.8827C24.4981 7.82032 24.8296 7.66614 25.0898 7.43967C25.3501 7.2132 25.5274 6.92461 25.5993 6.61038C25.6712 6.29616 25.6345 5.97042 25.4939 5.67435C25.3532 5.37829 25.1149 5.12519 24.8091 4.94708C24.5033 4.76896 24.1437 4.67383 23.7758 4.6737H23.7751C23.282 4.6739 22.8091 4.84455 22.4603 5.14818C22.1116 5.4518 21.9155 5.86358 21.915 6.29305ZM9.23837 24.4887C7.72712 24.4287 6.90571 24.2095 6.35984 24.0243C5.63615 23.7789 5.11979 23.4867 4.5769 23.0145C4.03401 22.5423 3.69795 22.093 3.41745 21.4627C3.20466 20.9875 2.95293 20.2719 2.88423 18.9557C2.80908 17.5327 2.79408 17.1053 2.79408 13.5001C2.79408 9.89496 2.81032 9.46868 2.88423 8.04449C2.95305 6.72829 3.20664 6.01409 3.41745 5.53748C3.69919 4.9072 4.03475 4.45748 4.5769 3.98466C5.11905 3.51184 5.63491 3.21916 6.35984 2.97486C6.90546 2.78953 7.72712 2.57029 9.23837 2.51046C10.8723 2.44501 11.3631 2.43194 15.5006 2.43194C19.6382 2.43194 20.1295 2.44609 21.7647 2.51046C23.276 2.5704 24.096 2.79126 24.6433 2.97486C25.367 3.21916 25.8833 3.51248 26.4262 3.98466C26.9691 4.45684 27.3039 4.9072 27.5856 5.53748C27.7984 6.01268 28.0502 6.72829 28.1189 8.04449C28.194 9.46868 28.209 9.89496 28.209 13.5001C28.209 17.1053 28.194 17.5315 28.1189 18.9557C28.05 20.2719 27.7971 20.9873 27.5856 21.4627C27.3039 22.093 26.9684 22.5427 26.4262 23.0145C25.8841 23.4862 25.367 23.7789 24.6433 24.0243C24.0976 24.2096 23.276 24.4288 21.7647 24.4887C20.1308 24.5541 19.64 24.5672 15.5006 24.5672C11.3612 24.5672 10.8718 24.5541 9.23837 24.4887ZM9.11003 0.081756C7.45989 0.147204 6.33231 0.375084 5.34759 0.708804C4.32777 1.05343 3.46445 1.51578 2.60175 2.26595C1.73905 3.01612 1.20954 3.7692 0.813845 4.65739C0.430669 5.51556 0.169019 6.49706 0.0938718 7.93422C0.0174847 9.37364 0 9.83383 0 13.5C0 17.1662 0.0174847 17.6264 0.0938718 19.0658C0.169019 20.503 0.430669 21.4844 0.813845 22.3426C1.20954 23.2303 1.73917 23.9842 2.60175 24.7341C3.46433 25.4839 4.32777 25.9456 5.34759 26.2912C6.33417 26.6249 7.45989 26.8528 9.11003 26.9182C10.7636 26.9837 11.2911 27 15.5006 27C19.7101 27 20.2385 26.9848 21.8912 26.9182C23.5415 26.8528 24.6683 26.6249 25.6537 26.2912C26.6728 25.9456 27.5368 25.4842 28.3995 24.7341C29.2622 23.9839 29.7906 23.2303 30.1874 22.3426C30.5706 21.4844 30.8335 20.5029 30.9074 19.0658C30.9825 17.6253 31 17.1662 31 13.5C31 9.83383 30.9825 9.37364 30.9074 7.93422C30.8322 6.49696 30.5706 5.51502 30.1874 4.65739C29.7906 3.76974 29.2608 3.0173 28.3995 2.26595C27.5382 1.51459 26.6728 1.05343 25.6549 0.708804C24.6683 0.375084 23.5414 0.146124 21.8925 0.081756C20.2397 0.016308 19.7113 0 15.5019 0C11.2924 0 10.7636 0.015228 9.11003 0.081756Z" fill="url(#paint1_radial_373_56)"/>
<defs>
<radialGradient id="paint0_radial_373_56" cx="0" cy="0" r="1" gradientUnits="userSpaceOnUse" gradientTransform="translate(4.11854 27.1275) scale(40.4679 35.2462)">
<stop offset="0.9999"/>
<stop offset="1" stop-color="#D82D7E"/>
</radialGradient>
<radialGradient id="paint1_radial_373_56" cx="0" cy="0" r="1" gradientUnits="userSpaceOnUse" gradientTransform="translate(18.8009 28.3371) scale(31.8956 27.7789)">
<stop offset="0.9998"/>
<stop offset="0.9999"/>
<stop offset="1"/>
</radialGradient>
</defs>
</svg>
