<svg width="642" height="220" viewBox="0 0 642 220" fill="none" xmlns="http://www.w3.org/2000/svg">
<path d="M22 198.657V65.5335C22 56.8707 24.87 48.4519 30.1615 41.593L31.5562 39.785C38.0976 31.306 48.2013 26.3397 58.9103 26.3397V26.3397C69.8647 26.3397 80.1699 31.5348 86.6847 40.3413L87.8807 41.9581C92.7881 48.5918 95.4367 56.6255 95.4367 64.8771V150.481C95.4367 157.157 97.175 163.718 100.481 169.519L100.808 170.093C107.445 181.74 119.821 188.932 133.226 188.932V188.932C145.616 188.932 157.197 182.782 164.137 172.518L165.158 171.008C169.714 164.269 172.149 156.321 172.149 148.186V63.0481" stroke="#D65862" stroke-width="44"/>
<path d="M172.149 4.06976L216.161 65.5032H128.138L172.149 4.06976Z" fill="#D65862"/>
<ellipse cx="316.519" cy="22.8886" rx="20.9771" ry="19.2463" fill="#E19F9B"/>
<rect x="296.707" y="58.7958" width="39.0408" height="145.352" rx="19.5204" fill="#D65862"/>
<ellipse cx="620.694" cy="20.0453" rx="21.3062" ry="19.5482" fill="#E19F9B"/>
<rect x="600.571" y="56.5158" width="39.6532" height="147.633" rx="19.8266" fill="#D65862"/>
<rect x="406.393" y="6.37927" width="35.4837" height="197.931" rx="17.7418" fill="#D65862"/>
<rect width="40.9733" height="135.477" rx="20.4866" transform="matrix(0.731272 -0.682086 0.657696 0.753284 430.08 117.035)" fill="#D65862"/>
<rect width="37.8063" height="89.7515" rx="18.9032" transform="matrix(0.648036 0.76161 -0.739977 0.672632 482.383 36.651)" fill="#D65862"/>
<ellipse cx="514.816" cy="25.008" rx="18.8683" ry="19.7931" fill="#E19F9B"/>
</svg>
